<?xml version="1.0" encoding="UTF-8"?>
<svg version="1.1" xmlns="http://www.w3.org/2000/svg" width="400" height="400">
<path d="M0 0 C10.84941766 10.27839567 16.6234102 23.8920857 17.625 38.6875 C17.9378456 54.18255842 11.42662225 66.61728367 1.125 77.8125 C-8.77596324 87.41434048 -21.45034168 91.95753605 -35.1171875 91.99609375 C-36.77734728 92.0212527 -38.43750344 92.04665074 -40.09765625 92.07226562 C-42.67333032 92.10092778 -45.24894195 92.12499227 -47.82470703 92.14379883 C-65.14751262 91.89437564 -65.14751262 91.89437564 -79.90625 99.9453125 C-85.59433436 106.69234873 -86.51520744 114.00928093 -86.56445312 122.58300781 C-86.57274643 123.3624173 -86.58103973 124.14182678 -86.58958435 124.94485474 C-86.60692836 126.63030261 -86.62211037 128.31577383 -86.63536072 130.00125885 C-86.65644441 132.66518851 -86.68345856 135.32899975 -86.71203613 137.99285889 C-86.78174886 144.60361819 -86.84140027 151.21446102 -86.90106201 157.82531738 C-86.95190766 163.42118284 -87.0066791 169.01698193 -87.06687927 174.61275482 C-87.09352636 177.24354609 -87.11429026 179.87434339 -87.1348877 182.50518799 C-87.15148097 184.10665183 -87.16835194 185.70811282 -87.18554688 187.30957031 C-87.18973129 188.04617889 -87.19391571 188.78278748 -87.19822693 189.54171753 C-87.26114597 194.57364597 -87.26114597 194.57364597 -88.375 195.6875 C-91.54112663 195.78286242 -94.68540628 195.81300636 -97.85180664 195.80102539 C-99.34432198 195.80124443 -99.34432198 195.80124443 -100.86698914 195.8014679 C-104.17306662 195.80076831 -107.47908854 195.79297379 -110.78515625 195.78515625 C-113.07059193 195.78329223 -115.35602801 195.78186825 -117.64146423 195.78086853 C-123.66998387 195.77704207 -129.69847959 195.7672107 -135.72698975 195.75616455 C-141.87332841 195.74595317 -148.01967093 195.7413715 -154.16601562 195.73632812 C-166.23568762 195.72558854 -178.30534182 195.7085106 -190.375 195.6875 C-192.08287748 192.70923382 -192.62461971 190.57983202 -192.62223816 187.1578064 C-192.62643265 186.25488358 -192.63062714 185.35196075 -192.63494873 184.42167664 C-192.62932922 183.43867081 -192.62370972 182.45566498 -192.61791992 181.44287109 C-192.61981827 180.40186752 -192.62171661 179.36086395 -192.62367249 178.28831482 C-192.62737868 174.84577923 -192.61667924 171.40345436 -192.60546875 167.9609375 C-192.60427689 165.5724795 -192.6038238 163.18402103 -192.6040802 160.79556274 C-192.60251567 155.79043646 -192.59422731 150.78538173 -192.58081055 145.78027344 C-192.56380244 139.35273504 -192.55999675 132.92527517 -192.56075573 126.4977169 C-192.56048433 121.5667953 -192.55500828 116.63589099 -192.54775429 111.70497513 C-192.54456427 109.33420569 -192.54259944 106.96343428 -192.54186058 104.59266281 C-192.53970159 101.28618756 -192.5309674 97.97979701 -192.52026367 94.67333984 C-192.52071686 93.68628555 -192.52117004 92.69923126 -192.52163696 91.68226624 C-192.51737198 90.78498306 -192.51310699 89.88769989 -192.50871277 88.96322632 C-192.50703692 88.18121038 -192.50536108 87.39919445 -192.50363445 86.59348106 C-192.375 84.6875 -192.375 84.6875 -191.375 82.6875 C-186.8534204 83.29630572 -182.94061437 84.49067897 -178.6875 86.125 C-160.67506559 92.69223109 -143.84168207 91.71815842 -126.375 83.6875 C-110.22858506 75.50728389 -97.42794728 62.9071323 -91.32421875 45.73046875 C-89.62094222 40.39704302 -88.20291035 35.02800819 -86.9296875 29.57958984 C-83.55345408 15.31433374 -77.35545729 4.16258131 -65.30859375 -4.5234375 C-43.90533353 -17.48020039 -19.60141693 -16.00656247 0 0 Z " fill="#101010" transform="translate(287.375,108.3125)"/>
<path d="M0 0 C7.35986422 8.95800617 8.76025055 21.88381173 7.7109375 33.0859375 C6.8447943 38.44428103 5.38103833 43.12969433 3 48 C1.8588818 44.57664541 2.13306525 44.10046236 3.4140625 40.90625 C5.15273765 36.00544614 5.4508418 31.66566904 5.375 26.5 C5.38660156 25.70980469 5.39820313 24.91960937 5.41015625 24.10546875 C5.37822961 17.60307597 4.03854008 11.72420372 0.89990234 5.99023438 C0 4 0 4 0 0 Z " fill="#A5A5A5" transform="translate(297,122)"/>
<path d="M0 0 C0 0.66 0 1.32 0 2 C-0.99 2 -1.98 2 -3 2 C-4.00217064 5.58327753 -4.00217064 5.58327753 -3 9 C-4.32 9.33 -5.64 9.66 -7 10 C-7 8.68 -7 7.36 -7 6 C-8.32 5.67 -9.64 5.34 -11 5 C-9.54462432 4.16151196 -8.08559627 3.32936066 -6.625 2.5 C-5.81289062 2.0359375 -5.00078125 1.571875 -4.1640625 1.09375 C-2 0 -2 0 0 0 Z " fill="#6D6D6D" transform="translate(170,188)"/>
<path d="M0 0 C0.99 0 1.98 0 3 0 C1.6062718 4.43458973 -0.60582235 6.87378374 -4 10 C-4.33 8.68 -4.66 7.36 -5 6 C-3.68 5.67 -2.36 5.34 -1 5 C-1.33 4.01 -1.66 3.02 -2 2 C-1.34 1.34 -0.68 0.68 0 0 Z " fill="#484848" transform="translate(295,172)"/>
<path d="M0 0 C2.62429743 3.13709118 3.95420147 6.13194468 5.25 10 C5.60578125 11.03125 5.9615625 12.0625 6.328125 13.125 C6.9907779 15.96053799 7.00586171 17.31770211 6 20 C5.73445313 19.18015625 5.46890625 18.3603125 5.1953125 17.515625 C4.84210938 16.43796875 4.48890625 15.3603125 4.125 14.25 C3.77695312 13.18265625 3.42890625 12.1153125 3.0703125 11.015625 C2.11444367 8.09098635 2.11444367 8.09098635 0.8671875 5.859375 C0 4 0 4 0 0 Z " fill="#767676" transform="translate(297,122)"/>
<path d="M0 0 C0.66 0.33 1.32 0.66 2 1 C1.4375 2.875 1.4375 2.875 0 5 C-3.625 6.25 -3.625 6.25 -7 7 C-4.66666667 4.66666667 -2.33333333 2.33333333 0 0 Z " fill="#9C9C9C" transform="translate(177,181)"/>
<path d="M0 0 C0.625 1.8125 0.625 1.8125 1 4 C-1 7 -1 7 -3.125 7.6875 C-3.74375 7.790625 -4.3625 7.89375 -5 8 C-3.62845496 5.04590299 -2.01136276 2.55991624 0 0 Z " fill="#626262" transform="translate(190,167)"/>
<path d="M0 0 C1.42944945 2.35438733 2.08661261 3.48032433 1.625 6.25 C1.41875 6.8275 1.2125 7.405 1 8 C0.01 8 -0.98 8 -2 8 C-1.34 5.36 -0.68 2.72 0 0 Z " fill="#4D4D4D" transform="translate(197,151)"/>
</svg>
